<?xml version="1.0" encoding="UTF-8" standalone="no"?>
<!-- Generator: Adobe Illustrator 23.0.2, SVG Export Plug-In . SVG Version: 6.00 Build 0)  -->

<svg
   version="1.1"
   id="Layer_1"
   x="0px"
   y="0px"
   viewBox="0 0 294.48001 294.45999"
   xml:space="preserve"
   sodipodi:docname="forall_circle_white_cropped.svg"
   width="294.48001"
   height="294.45999"
   inkscape:version="1.1.1 (3bf5ae0d25, 2021-09-20)"
   xmlns:inkscape="http://www.inkscape.org/namespaces/inkscape"
   xmlns:sodipodi="http://sodipodi.sourceforge.net/DTD/sodipodi-0.dtd"
   xmlns="http://www.w3.org/2000/svg"
   xmlns:svg="http://www.w3.org/2000/svg"><defs
   id="defs13" /><sodipodi:namedview
   id="namedview11"
   pagecolor="#505050"
   bordercolor="#eeeeee"
   borderopacity="1"
   inkscape:pageshadow="0"
   inkscape:pageopacity="0"
   inkscape:pagecheckerboard="0"
   showgrid="false"
   fit-margin-top="0"
   fit-margin-left="0"
   fit-margin-right="0"
   fit-margin-bottom="0"
   inkscape:zoom="0.873"
   inkscape:cx="-181.55785"
   inkscape:cy="147.19359"
   inkscape:window-width="2560"
   inkscape:window-height="1377"
   inkscape:window-x="3832"
   inkscape:window-y="-8"
   inkscape:window-maximized="1"
   inkscape:current-layer="Layer_1" />
<style
   type="text/css"
   id="style2">
	.st0{fill:#2F2B28;}
	.st1{fill:#560107;}
	.st2{fill:#FFFFFF;}
</style>
<g
   id="g8"
   transform="translate(-352.76,-352.77)"
   style="fill:#ffffff">
	<g
   id="g6"
   style="fill:#ffffff">
		<path
   d="m 500,352.77 c -81.19,0 -147.24,66.04 -147.24,147.23 0,81.19 66.05,147.23 147.24,147.23 81.19,0 147.24,-66.04 147.24,-147.23 0,-81.19 -66.05,-147.23 -147.24,-147.23 z M 400.74,498.8 v -17.45 h 16.15 l 9.1,17.41 z M 500,620.44 487.69,596.76 396.53,421.53 h 19.67 l 75.68,145.5 17.94,34.52 z m 72.41,-139.18 -9.09,17.46 -32.69,62.84 -9.78,-19 22.8,-43.81 -30.86,0.05 h -0.47 l -41.08,0.02 -3.47,-0.02 -9.09,-17.41 54.11,-0.04 39.93,-0.06 31.09,-59.75 h 19.66 z"
   id="path4"
   style="fill:#ffffff" />
	</g>
</g>
</svg>
