<?xml version="1.0" standalone="no"?>
<!DOCTYPE svg PUBLIC "-//W3C//DTD SVG 20010904//EN"
 "http://www.w3.org/TR/2001/REC-SVG-20010904/DTD/svg10.dtd">
<svg version="1.0" xmlns="http://www.w3.org/2000/svg"
 width="700.000000pt" height="700.000000pt" viewBox="0 0 700.000000 700.000000"
 preserveAspectRatio="xMidYMid meet">
<metadata>
Created by potrace 1.14, written by Peter Selinger 2001-2017
</metadata>
<g transform="translate(0.000000,700.000000) scale(0.100000,-0.100000)"
fill="#000000" stroke="none">
<path d="M3278 6995 c-1 -1 -42 -5 -89 -9 -47 -4 -95 -8 -106 -10 -11 -3 -44
-7 -74 -11 -241 -30 -632 -136 -834 -225 -367 -162 -602 -302 -880 -525 -160
-127 -455 -427 -549 -558 -17 -23 -33 -44 -36 -47 -29 -26 -191 -274 -264
-404 -197 -352 -329 -726 -396 -1120 -22 -132 -25 -151 -37 -286 -15 -162 -8
-605 11 -707 2 -10 7 -43 10 -73 7 -62 12 -94 26 -165 6 -27 12 -59 14 -71 60
-317 219 -729 399 -1039 39 -68 184 -288 212 -323 7 -9 44 -56 82 -103 91
-115 179 -213 288 -319 79 -77 115 -109 225 -204 79 -68 418 -306 436 -306 2
0 23 -12 46 -26 60 -38 299 -156 401 -198 175 -72 465 -162 614 -191 303 -58
431 -70 733 -70 216 1 363 10 490 31 165 27 224 38 275 51 33 8 68 16 77 18
43 9 183 51 285 86 728 251 1327 714 1776 1372 37 54 67 99 67 101 0 2 19 35
42 72 210 347 394 877 443 1279 4 28 8 61 11 75 26 150 26 622 -1 830 -7 62
-15 117 -20 140 -3 14 -8 41 -11 60 -8 54 -54 262 -63 290 -5 14 -17 52 -26
85 -116 408 -341 835 -633 1202 -91 113 -351 381 -462 475 -244 207 -562 405
-865 538 -248 109 -588 209 -840 246 -27 4 -57 9 -65 10 -8 2 -42 6 -76 9 -33
4 -74 9 -90 11 -32 5 -540 14 -546 9z"/>
</g>
</svg>
